<?xml version="1.0" standalone="no"?><!DOCTYPE svg PUBLIC "-//W3C//DTD SVG 1.1//EN" "http://www.w3.org/Graphics/SVG/1.1/DTD/svg11.dtd"><svg width="100%" height="100%" viewBox="0 0 531 280" version="1.1" xmlns="http://www.w3.org/2000/svg" xmlns:xlink="http://www.w3.org/1999/xlink" xml:space="preserve" style="fill-rule:evenodd;clip-rule:evenodd;stroke-linejoin:round;stroke-miterlimit:1.41421;"><g><path d="M233,2.2c-39.2,2.9 -93.7,16.1 -125,30.3c-30.7,13.8 -59.3,34.3 -72.6,52c-2.8,3.8 -7.7,9.5 -10.9,12.5c-5.3,5.2 -14.2,17.5 -17.9,24.7c-2.8,5.5 -5.6,19.4 -5.6,27.9c0,10.2 2.7,20.5 8.6,32.9c3.9,8.2 6,11.1 15.7,21.4c13.6,14.3 15.7,16.2 27.2,23.7c17.4,11.4 41.1,22.5 64.5,30.2c25.6,8.5 31.6,9.9 62.7,15.1c20.1,3.4 27.6,4.2 48.5,5c37.3,1.6 47.7,1.4 79.8,-1.9c65.8,-6.8 118.6,-23.7 156.4,-50.1c9.2,-6.5 13.9,-10.6 21,-18.7c5,-5.7 12.8,-14.2 17.3,-18.8c5.6,-5.8 10.6,-12.4 15.7,-20.7c6.4,-10.4 7.8,-13.6 9.6,-21.6c5.4,-22.9 -1,-47.9 -17,-65.9c-14.1,-16 -29.8,-27.5 -56.2,-41.2c-19.6,-10.1 -46.9,-20.2 -67.8,-25c-17.1,-4 -57.9,-10.7 -72.5,-11.9c-14.1,-1.3 -65,-1.2 -81.5,0.1ZM312,15.1c21.8,1.9 57.4,7 69.7,10c23.9,5.6 57.3,17.9 72.7,26.6c36.8,20.9 52.9,37.6 60.5,62.7c6.9,22.7 -2.8,48.2 -27.2,71.2c-32.1,30.3 -99.6,53.1 -176.3,59.5c-19.2,1.6 -72.5,0.7 -90.4,-1.5c-46.9,-5.9 -86.2,-16.4 -117.5,-31.5c-20.2,-9.8 -30.7,-16.6 -41.8,-27c-24.6,-23.4 -34.3,-47.8 -27.6,-69.7c7.6,-25.3 24.4,-42.6 61.5,-63.7c14.9,-8.4 50,-21.5 72,-26.7c17.6,-4.2 59.8,-9.6 89.9,-11.4c9.2,-0.6 41.6,0.3 54.5,1.5Z" style="fill:#2c276c;fill-rule:nonzero;"/><path d="M127.5,54c-14.8,1.6 -27.3,7.7 -38.6,18.9c-16.1,16.1 -21.7,34.4 -18.3,59.6c1.7,13.2 5.3,21.2 14.1,32.2c8.4,10.3 14.7,14.7 27.3,18.8c15.4,4.9 22.2,5.9 37.5,5.1c17.1,-0.9 24,-1.9 34.7,-5.2l8.8,-2.7l0.1,-17.1c0.1,-20.9 0.7,-23.4 7,-25.8c2.4,-0.9 5.6,-1.7 7.2,-1.7c2.3,-0.1 2.7,-0.5 2.7,-3.1l0,-3l-35,0l-35,0l0,3c0,2.9 0.2,3 4.3,3.1c7.5,0.1 12,2 13.9,5.9c2.4,4.6 2.5,23.3 0.3,30.8c-1.5,5 -1.7,5.2 -6.7,6.7c-6.6,1.9 -14,1.9 -20.8,-0.1c-4.1,-1.2 -6.9,-3 -11.7,-7.6c-5.3,-5.1 -6.8,-7.3 -9.4,-14.1c-4.4,-11.5 -5.9,-20.8 -5.9,-36.7c0,-19.8 3.8,-36.3 10.6,-46.2c2.9,-4.1 11.1,-9.9 16.8,-11.8c6.7,-2.2 18.3,-0.9 26.2,3c10.1,4.9 19.9,14.8 24.9,24.9c3.5,7.3 4.2,8.1 6.7,8.1l2.8,0l0,-46l-2.9,0c-2.4,0 -3.4,0.8 -5.5,4.5c-3.3,5.5 -4,5.6 -17.5,1c-8.7,-2.9 -25.5,-5.9 -30.3,-5.4c-0.7,0.1 -4.4,0.5 -8.3,0.9Z" style="fill:#2c276c;fill-rule:nonzero;"/><path d="M345.5,53.8c-1.6,0.2 -3.7,0.9 -4.5,1.6c-0.8,0.7 -2.3,1.6 -3.3,1.9c-1,0.4 -2.4,2.2 -3.2,4.2c-3,7.1 -1.3,13.3 5.1,18.1c2.9,2.3 4.5,2.7 9.5,2.7c5.2,0 6.3,-0.3 8.9,-2.8c1.6,-1.6 3.7,-4.8 4.6,-7.1c1.5,-3.9 1.5,-4.6 -0.1,-9.3c-2.3,-7 -8.6,-10.4 -17,-9.3Z" style="fill:#2c276c;fill-rule:nonzero;"/><path d="M247.1,96c-2.4,0.5 -6.1,1.9 -8.3,3c-5.1,2.6 -14.1,9.8 -15,11.9c-1.3,3.1 -0.7,9.6 1.1,13.8c2.6,5.5 6,7.7 11.2,7c10.6,-1.4 13.8,-9.8 7.4,-19.6c-1.5,-2.2 -2.5,-4.6 -2.2,-5.4c0.6,-1.7 10.3,-4.7 15.2,-4.7c5.2,0 12.2,3.5 14.1,7.1c1.1,2.2 1.4,5.6 1.2,13.6l-0.3,10.6l-12.5,4.2c-18.4,6.2 -25.7,9.8 -31.8,15.8c-6.7,6.5 -8.2,9.4 -8.2,15.2c0,6.1 2.2,10.5 7.5,15.4c4.9,4.5 9.2,5.6 20.3,4.9c5.4,-0.3 8.5,-1.1 14.3,-4c4.1,-2 8.5,-4.8 9.9,-6.3l2.4,-2.5l2.5,4.6c3.5,6.4 7.9,8.7 15.2,8.1c6.2,-0.5 11.5,-3 17.4,-8.1c3.9,-3.4 4,-3.4 2.1,-5.5c-1.4,-1.5 -2.3,-1.8 -3.7,-1.1c-2.8,1.6 -5.7,1.2 -6.9,-0.9c-0.6,-1.2 -1,-12.3 -1,-29.2c0,-17.5 -0.4,-28.5 -1.1,-31c-1.8,-5.8 -6.1,-10.2 -13.6,-13.9c-6.6,-3.3 -7.3,-3.4 -19.8,-3.7c-7.1,-0.1 -15,0.2 -17.4,0.7ZM272,154.8c0,13.1 -0.1,14 -2.2,15.9c-3.6,3.2 -6.3,4.3 -11,4.3c-6.9,-0.1 -10.8,-4.4 -10.8,-12c0,-6.1 2.5,-10.5 8.3,-14.6c5.2,-3.8 12.2,-7.3 14.5,-7.4c0.9,0 1.2,3.4 1.2,13.8Z" style="fill:#2c276c;fill-rule:nonzero;"/><path d="M410.2,96.5c-14.8,4.1 -24.7,14.3 -22.6,23.2c1.1,4.5 4.7,10.1 7.2,11.3c5.5,2.5 12.3,0.3 14.7,-4.7c2.1,-4.4 1.5,-8.9 -1.9,-13.9c-3.3,-4.9 -2.3,-6.6 5.3,-8.9c7.5,-2.2 13.1,-1.6 18.5,2.2c4.8,3.4 5.8,6.8 5.4,19.2l-0.3,8.4l-12.5,4.2c-24.9,8.3 -37.5,16.6 -39.9,26c-1.7,6.6 0.1,12.4 5.6,18.5c5.4,6 9.2,7.4 19.9,6.8c6.3,-0.3 9.3,-1 15.1,-3.7c3.9,-1.8 8.4,-4.6 9.9,-6.2l2.8,-2.9l2.5,4.7c4.9,8.7 14,10.7 24.7,5.3c3.3,-1.6 7.3,-4.3 8.9,-6c2.8,-2.9 2.8,-3 1,-5c-1.3,-1.5 -2.1,-1.7 -3.1,-0.9c-0.7,0.6 -2.5,0.9 -4.1,0.7l-2.8,-0.3l-0.6,-29c-0.4,-20 -1,-30.2 -1.9,-32.7c-2.1,-5.9 -6.3,-10.2 -13.7,-13.9c-6.6,-3.3 -7.2,-3.4 -19.8,-3.6c-9,-0.2 -14.6,0.2 -18.3,1.2ZM437,154.8c0,13.1 -0.1,14 -2.2,15.9c-3.6,3.3 -6.3,4.3 -11.3,4.3c-5.6,0 -8.8,-2.7 -10.5,-9c-1.9,-7 -0.7,-10.2 5.9,-15.9c5.1,-4.4 13.4,-8.9 16.9,-9c0.9,-0.1 1.2,3.3 1.2,13.7Z" style="fill:#2c276c;fill-rule:nonzero;"/><path d="M324,100c0,1.6 0.5,3 1.1,3c0.6,0 2.6,0.7 4.5,1.6c2.5,1.2 3.6,2.6 4.4,5.3c1.4,5.1 1.3,92.4 -0.1,99.2c-0.6,2.8 -2,6 -3,7c-2.1,2.1 -6.9,2.5 -10,0.9c-2.4,-1.4 -2.4,-3.2 0.1,-5.5c1.5,-1.3 2,-3.1 2,-6.5c0,-4.3 -0.3,-5 -3.7,-7.6c-6.2,-4.7 -13.9,-3.6 -18.4,2.7c-3,4.3 -2.9,9.9 0.5,14.7c4,5.8 7.8,8.1 16.3,9.9c6.5,1.3 9,1.4 15.2,0.4c15.8,-2.4 22.2,-8 26.3,-22.8c2.1,-7.4 2.2,-10.2 2.6,-56.6l0.3,-48.7l-19,0l-19.1,0l0,3Z" style="fill:#2c276c;fill-rule:nonzero;"/></g></svg>